
<svg width="32" height="32" viewBox="0 0 32 32" fill="none" xmlns="http://www.w3.org/2000/svg">
  <path d="M16 2C8.268 2 2 8.268 2 16s6.268 14 14 14 14-6.268 14-14S23.732 2 16 2z" fill="#4F46E5"/>
  <path d="M22 10.5C22 12.433 20.433 14 18.5 14S15 12.433 15 10.5 16.567 7 18.5 7 22 8.567 22 10.5z" fill="white"/>
  <path d="M14 21.5c0 1.933-1.567 3.5-3.5 3.5S7 23.433 7 21.5 8.567 18 10.5 18s3.5 1.567 3.5 3.5z" fill="white"/>
  <path d="M25 21.5c0 1.933-1.567 3.5-3.5 3.5S18 23.433 18 21.5 19.567 18 21.5 18s3.5 1.567 3.5 3.5z" fill="white"/>
  <path d="M11 10.5c0 1.933-1.567 3.5-3.5 3.5S4 12.433 4 10.5 5.567 7 7.5 7 11 8.567 11 10.5z" fill="white"/>
  <path d="M15 16a1 1 0 011-1h1a1 1 0 110 2h-1a1 1 0 01-1-1z" fill="white"/>
  <path fill-rule="evenodd" clip-rule="evenodd" d="M10.5 14a3.5 3.5 0 01-3.5-3.5v7a3.5 3.5 0 017 0v-7a3.5 3.5 0 01-3.5 3.5z" fill="#8B5CF6" fill-opacity="0.5"/>
  <path fill-rule="evenodd" clip-rule="evenodd" d="M21.5 14a3.5 3.5 0 01-3.5-3.5v7a3.5 3.5 0 017 0v-7a3.5 3.5 0 01-3.5 3.5z" fill="#8B5CF6" fill-opacity="0.5"/>
</svg>
